<svg xmlns="http://www.w3.org/2000/svg" viewBox="0 0 200 200" fill="none">
  <rect width="200" height="200" rx="24" fill="#f1f5f9"/>
  <!-- Disco de freno -->
  <circle cx="92" cy="104" r="58" fill="#e2e8f0" stroke="#475569" stroke-width="3"/>
  <circle cx="92" cy="104" r="44" fill="#f8fafc" stroke="#64748b" stroke-width="2"/>
  <circle cx="92" cy="104" r="20" fill="#e2e8f0" stroke="#475569" stroke-width="3"/>
  <circle cx="92" cy="104" r="6" fill="#475569"/>
  <!-- Tornillos del buje -->
  <circle cx="92" cy="88" r="3.5" fill="#64748b"/>
  <circle cx="77" cy="112" r="3.5" fill="#64748b"/>
  <circle cx="107" cy="112" r="3.5" fill="#64748b"/>
  <!-- Ventilación del disco -->
  <g fill="#cbd5e1">
    <circle cx="92" cy="70" r="3"/>
    <circle cx="122" cy="87" r="3"/>
    <circle cx="122" cy="121" r="3"/>
    <circle cx="92" cy="138" r="3"/>
    <circle cx="62" cy="121" r="3"/>
    <circle cx="62" cy="87" r="3"/>
  </g>
  <!-- Pinza de freno -->
  <path d="M128 58 A58 58 0 0 1 150 100 L166 100 A74 74 0 0 0 138 46 Z" fill="#2563eb" stroke="#1d4ed8" stroke-width="2.5" stroke-linejoin="round"/>
  <circle cx="146" cy="66" r="4" fill="#f8fafc"/>
</svg>
