<svg xmlns="http://www.w3.org/2000/svg" viewBox="0 0 200 200" fill="none">
  <rect width="200" height="200" rx="24" fill="#f1f5f9"/>
  <!-- Correa de distribución -->
  <path d="M63 68 a30 30 0 1 1 0 60 l50 14 a22 22 0 1 1 14 -52 Z" fill="none" stroke="#475569" stroke-width="8" stroke-linejoin="round"/>
  <path d="M63 68 a30 30 0 1 1 0 60 l50 14 a22 22 0 1 1 14 -52 Z" fill="none" stroke="#f8fafc" stroke-width="3" stroke-dasharray="4 6" stroke-linejoin="round"/>
  <!-- Polea grande -->
  <circle cx="63" cy="98" r="22" fill="#e2e8f0" stroke="#475569" stroke-width="3"/>
  <circle cx="63" cy="98" r="7" fill="#2563eb"/>
  <g fill="#94a3b8">
    <circle cx="63" cy="84" r="3"/>
    <circle cx="51" cy="105" r="3"/>
    <circle cx="75" cy="105" r="3"/>
  </g>
  <!-- Polea pequeña -->
  <circle cx="134" cy="112" r="16" fill="#e2e8f0" stroke="#475569" stroke-width="3"/>
  <circle cx="134" cy="112" r="5.5" fill="#2563eb"/>
  <!-- Tensor -->
  <circle cx="103" cy="146" r="10" fill="#cbd5e1" stroke="#64748b" stroke-width="2.5"/>
  <circle cx="103" cy="146" r="3.5" fill="#64748b"/>
</svg>
