<svg xmlns="http://www.w3.org/2000/svg" viewBox="0 0 200 200" fill="none">
  <rect width="200" height="200" rx="24" fill="#f1f5f9"/>
  <!-- Disco de embrague -->
  <circle cx="100" cy="100" r="60" fill="#e2e8f0" stroke="#475569" stroke-width="3"/>
  <circle cx="100" cy="100" r="46" fill="#f8fafc" stroke="#64748b" stroke-width="2"/>
  <!-- Muelles del disco -->
  <g fill="#2563eb" stroke="#1d4ed8" stroke-width="2">
    <rect x="90" y="62" width="20" height="12" rx="6"/>
    <rect x="124" y="86" width="20" height="12" rx="6" transform="rotate(72 134 92)"/>
    <rect x="108" y="126" width="20" height="12" rx="6" transform="rotate(144 118 132)"/>
    <rect x="66" y="122" width="20" height="12" rx="6" transform="rotate(216 76 128)"/>
    <rect x="58" y="80" width="20" height="12" rx="6" transform="rotate(288 68 86)"/>
  </g>
  <!-- Buje estriado -->
  <circle cx="100" cy="100" r="18" fill="#e2e8f0" stroke="#475569" stroke-width="3"/>
  <circle cx="100" cy="100" r="8" fill="#f8fafc" stroke="#64748b" stroke-width="2"/>
  <g stroke="#64748b" stroke-width="2">
    <line x1="100" y1="82" x2="100" y2="88"/>
    <line x1="100" y1="112" x2="100" y2="118"/>
    <line x1="82" y1="100" x2="88" y2="100"/>
    <line x1="112" y1="100" x2="118" y2="100"/>
  </g>
</svg>
